# xmcd CD database file
#
# Track frame offsets:
#	150
#	20555
#	37677
#	53980
#	69480
#	85280
#	106127
#	128112
#	147325
#
# Disc length: 2202 seconds
#
# Revision: 0
# Processed by: cddbd v1.5.1PL0 Copyright (c) Steve Scherf et al.
# Submitted via: CDex 1.51
#
DISCID=73089809
DTITLE=Caledonia Blues Band - Blues For The Mother
DYEAR=1990
DGENRE=Blues
TTITLE0=Blues For The Mother
TTITLE1=When Your Woman's On Welfare
TTITLE2=My Aunt Lucia
TTITLE3=Uneasy
TTITLE4=Got My MOjo Workin'
TTITLE5=That's Life
TTITLE6=Dogs To Town
TTITLE7=Pig's Foot
TTITLE8=Messin' With The Kid
EXTD=YEAR: 1990
EXTT0=
EXTT1=
EXTT2=
EXTT3=
EXTT4=
EXTT5=
EXTT6=
EXTT7=
EXTT8=
PLAYORDER=
